# xmcd CD database file
#
# Track frame offsets:
#	150
#	23842
#	49362
#	69885
#	89712
#	109645
#	132492
#	154345
#	175940
#
# Disc length: 2622 seconds
#
# Revision: 1
# Processed by: cddbd v1.5.2PL0 Copyright (c) Steve Scherf et al.
# Submitted via: CDex 1.70beta2
#
DISCID=7a0a3c09
DTITLE=Jay Lozada - Jay Lozada
DYEAR=2000
DGENRE=Salsa
TTITLE0=Por amarte asi
TTITLE1=Porque eres tu
TTITLE2=Si no llegas
TTITLE3=Sigue viviendo en mi
TTITLE4=Imaginame sin ti
TTITLE5=La gran senora
TTITLE6=Solo tu
TTITLE7=No hay problema
TTITLE8=Una flor sin espina
EXTD=YEAR: 2000
EXTT0=
EXTT1=
EXTT2=
EXTT3=
EXTT4=
EXTT5=
EXTT6=
EXTT7=
EXTT8=
PLAYORDER=
